<svg xmlns="http://www.w3.org/2000/svg" width="1315" height="1032" viewBox="0 0 1315 1032" fill="none">
<path d="M1063.64 937.954C1111.19 972.688 1134.97 990.055 1161.04 1002.38C1184.18 1013.32 1208.6 1021.29 1233.74 1026.1C1262.06 1031.53 1291.5 1031.53 1350.39 1031.53L1537.32 1031.53C1588.55 1031.53 1614.17 1031.53 1624.09 1022.22C1632.67 1014.18 1636.55 1002.31 1634.36 990.748C1631.84 977.381 1611.15 962.272 1569.79 932.053L1079.06 573.599C1031.5 538.865 1007.73 521.498 981.657 509.172C958.52 498.234 934.094 490.264 908.96 485.449C880.636 480.023 851.193 480.023 792.307 480.023L605.375 480.023C554.144 480.023 528.529 480.023 518.605 489.328C510.024 497.374 506.15 509.246 508.333 520.805C510.859 534.172 531.543 549.281 572.912 579.499L1063.64 937.954Z" fill="#5991A8"/>
<path d="M1100.13 725.23C1147.69 759.964 1171.46 777.331 1197.53 789.657C1220.67 800.595 1245.1 808.565 1270.23 813.38C1298.55 818.806 1328 818.806 1386.88 818.806L1573.82 818.806C1625.05 818.806 1650.66 818.806 1660.58 809.501C1669.17 801.455 1673.04 789.583 1670.86 778.024C1668.33 764.657 1647.65 749.548 1606.28 719.33L1115.55 360.875C1068 326.141 1044.22 308.774 1018.15 296.449C995.013 285.511 970.587 277.54 945.452 272.725C917.129 267.3 887.686 267.3 828.799 267.3L641.867 267.3C590.637 267.3 565.021 267.3 555.098 276.604C546.517 284.65 542.642 296.523 544.826 308.081C547.351 321.448 568.036 336.557 609.405 366.776L1100.13 725.23Z" fill="#BDD6AE"/>
<path d="M1112.47 421.083C1196.85 482.72 1239.04 513.538 1285.31 535.41C1326.36 554.819 1369.71 568.963 1414.31 577.507C1464.57 587.135 1516.82 587.135 1621.31 587.135L1953.03 587.135C2043.94 587.135 2089.39 587.135 2107 570.624C2122.23 556.346 2129.1 535.278 2125.23 514.767C2120.75 491.047 2084.04 464.236 2010.63 410.613L1139.82 -225.472C1055.44 -287.108 1013.25 -317.926 966.985 -339.798C925.929 -359.207 882.585 -373.352 837.983 -381.896C787.723 -391.523 735.475 -391.523 630.98 -391.523L299.265 -391.523C208.356 -391.523 162.901 -391.523 145.292 -375.012C130.065 -360.735 123.189 -339.666 127.064 -319.156C131.545 -295.436 168.25 -268.624 241.66 -215.001L1112.47 421.083Z" fill="#E4E2A7"/>
<path d="M1200.21 97.8594C1279.63 155.874 1319.34 184.881 1362.89 205.468C1401.53 223.737 1442.33 237.05 1484.31 245.092C1531.62 254.154 1580.8 254.154 1679.15 254.154L1991.38 254.154C2076.94 254.154 2119.73 254.154 2136.3 238.613C2150.63 225.175 2157.11 205.344 2153.46 186.038C2149.24 163.712 2114.69 138.476 2045.6 88.0041L1225.95 -510.705C1146.53 -568.72 1106.82 -597.727 1063.27 -618.314C1024.63 -636.583 983.832 -649.896 941.851 -657.938C894.544 -667 845.366 -667 747.011 -667L434.787 -667C349.219 -667 306.436 -667 289.861 -651.459C275.528 -638.02 269.057 -618.19 272.704 -598.884C276.922 -576.558 311.47 -551.322 380.567 -500.85L1200.21 97.8594Z" fill="#F5E7AF"/>
</svg>