<svg xmlns="http://www.w3.org/2000/svg" width="290" height="339" viewBox="0 0 290 339" fill="none">
<path d="M-194.151 127.753H-89.0197C-55.9016 127.753 -39.3426 127.753 -23.4133 130.804C-9.27747 133.512 4.45966 137.995 17.4717 144.146C32.1347 151.078 45.5063 160.846 72.2494 180.38L212.812 283.055C236.078 300.049 247.711 308.547 249.131 316.064C250.359 322.565 248.18 329.242 243.354 333.767C237.773 339 223.367 339 194.555 339H88.5142C55.7337 339 39.3435 339 23.5765 335.98C9.58472 333.3 -4.01239 328.863 -16.8918 322.774C-31.4053 315.913 -44.6405 306.245 -71.1109 286.91L-71.1113 286.909L-212.408 183.699C-235.674 166.704 -247.307 158.206 -248.728 150.689C-249.956 144.188 -247.777 137.511 -242.951 132.986C-237.37 127.753 -222.963 127.753 -194.151 127.753Z" fill="rgb(84,141,167)"/>
<path d="M-194.151 0H-89.0197C-55.9016 0 -39.3426 0 -23.4133 3.05133C-9.27747 5.75912 4.45966 10.242 17.4717 16.3934C32.1347 23.3254 45.5063 33.0927 72.2494 52.6273L212.812 155.302C236.078 172.296 247.711 180.794 249.131 188.312C250.359 194.812 248.18 201.489 243.354 206.014C237.773 211.247 223.367 211.247 194.555 211.247H88.5142C55.7337 211.247 39.3435 211.247 23.5765 208.227C9.58472 205.547 -4.01239 201.11 -16.8918 195.021C-31.4053 188.16 -44.6405 178.492 -71.1109 159.157L-71.1113 159.156L-212.408 55.9457C-235.674 38.9508 -247.307 30.4533 -248.728 22.9357C-249.956 16.4352 -247.777 9.75786 -242.951 5.23291C-237.37 0 -222.963 0 -194.151 0Z" fill="#F9E7A5"/>
<defs>
<linearGradient id="paint0_linear_14012_79971" x1="177.809" y1="211.44" x2="-164.802" y2="-23.4933" gradientUnits="userSpaceOnUse">
<stop stop-color="#FAFAFD"/>
<stop offset="1" stop-color="#DCDEE5" stop-opacity="0"/>
</linearGradient>
</defs>
</svg>